<svg width="10478" height="2728" viewBox="0 0 10478 2728" fill="none" xmlns="http://www.w3.org/2000/svg">
<path d="M1792.39 1914.67C1694.73 1998.65 1585.36 2063.11 1464.27 2108.03C1343.17 2152.95 1217.68 2175.41 1087.8 2175.41C988.191 2175.41 892 2162.23 799.227 2135.86C707.43 2110.47 621.004 2074.34 539.949 2027.46C459.871 1979.61 386.629 1922.48 320.223 1856.07C253.816 1789.67 196.688 1716.43 148.836 1636.35C101.961 1555.29 65.3398 1468.87 38.9727 1377.07C13.582 1284.3 0.886719 1188.11 0.886719 1088.5C0.886719 988.887 13.582 892.695 38.9727 799.922C65.3398 707.148 101.961 620.723 148.836 540.645C196.688 459.59 253.816 385.859 320.223 319.453C386.629 253.047 459.871 196.406 539.949 149.531C621.004 101.68 707.43 65.0586 799.227 39.668C892 13.3008 988.191 0.117188 1087.8 0.117188C1217.68 0.117188 1343.17 22.5781 1464.27 67.5C1585.36 111.445 1694.73 175.898 1792.39 260.859L1569.73 627.07C1508.21 560.664 1435.46 509.883 1351.47 474.727C1267.49 438.594 1179.6 420.527 1087.8 420.527C995.027 420.527 908.113 438.105 827.059 473.262C746.004 508.418 675.203 556.27 614.656 616.816C554.109 676.387 506.258 747.188 471.102 829.219C435.945 910.273 418.367 996.699 418.367 1088.5C418.367 1180.29 435.945 1266.72 471.102 1347.77C506.258 1427.85 554.109 1498.16 614.656 1558.71C675.203 1619.26 746.004 1667.11 827.059 1702.27C908.113 1737.42 995.027 1755 1087.8 1755C1179.6 1755 1267.49 1737.42 1351.47 1702.27C1435.46 1666.13 1508.21 1614.86 1569.73 1548.46L1792.39 1914.67ZM3367.92 2130H3271.24L3115.96 1914.67C3077.88 1948.85 3037.35 1981.07 2994.38 2011.35C2952.39 2040.64 2907.96 2066.52 2861.08 2088.98C2814.21 2110.47 2765.87 2127.56 2716.06 2140.25C2667.23 2152.95 2617.43 2159.3 2566.65 2159.3C2456.3 2159.3 2352.29 2140.74 2254.64 2103.63C2157.96 2066.52 2073 2012.81 1999.75 1942.5C1927.49 1871.21 1870.36 1784.3 1828.37 1681.76C1786.38 1579.22 1765.38 1462.52 1765.38 1331.66C1765.38 1209.59 1786.38 1097.77 1828.37 996.211C1870.36 893.672 1927.49 805.781 1999.75 732.539C2073 659.297 2157.96 602.656 2254.64 562.617C2352.29 521.602 2456.3 501.094 2566.65 501.094C2617.43 501.094 2667.72 507.441 2717.53 520.137C2767.33 532.832 2815.67 550.41 2862.55 572.871C2909.42 595.332 2953.86 621.699 2995.85 651.973C3038.82 682.246 3078.86 714.961 3115.96 750.117L3271.24 564.082H3367.92V2130ZM2965.09 1331.66C2965.09 1276.97 2954.34 1224.24 2932.86 1173.46C2912.35 1121.7 2884.03 1076.29 2847.9 1037.23C2811.77 997.188 2769.29 965.449 2720.46 942.012C2672.61 917.598 2621.34 905.391 2566.65 905.391C2511.96 905.391 2460.2 914.668 2411.38 933.223C2363.52 951.777 2321.53 979.121 2285.4 1015.25C2250.24 1051.39 2222.41 1096.31 2201.9 1150.02C2181.39 1202.75 2171.14 1263.3 2171.14 1331.66C2171.14 1400.02 2181.39 1461.05 2201.9 1514.77C2222.41 1567.5 2250.24 1611.93 2285.4 1648.07C2321.53 1684.2 2363.52 1711.54 2411.38 1730.1C2460.2 1748.65 2511.96 1757.93 2566.65 1757.93C2621.34 1757.93 2672.61 1746.21 2720.46 1722.77C2769.29 1698.36 2811.77 1666.62 2847.9 1627.56C2884.03 1587.52 2912.35 1542.11 2932.86 1491.33C2954.34 1439.57 2965.09 1386.35 2965.09 1331.66ZM5579.19 2130H5180.75V1133.91C5180.75 1106.56 5175.38 1080.68 5164.64 1056.27C5154.87 1031.86 5140.71 1010.37 5122.16 991.816C5103.6 973.262 5082.12 959.102 5057.7 949.336C5033.29 938.594 5007.41 933.223 4980.07 933.223C4952.72 933.223 4926.84 938.594 4902.43 949.336C4878.99 959.102 4858 973.262 4839.44 991.816C4821.86 1010.37 4807.7 1031.86 4796.96 1056.27C4787.2 1080.68 4782.31 1106.56 4782.31 1133.91V2130H4382.41V1133.91C4382.41 1106.56 4377.04 1080.68 4366.3 1056.27C4356.53 1031.86 4342.37 1010.37 4323.82 991.816C4305.26 973.262 4283.78 959.102 4259.36 949.336C4234.95 938.594 4209.07 933.223 4181.73 933.223C4154.38 933.223 4128.5 938.594 4104.09 949.336C4080.65 959.102 4059.66 973.262 4041.1 991.816C4023.52 1010.37 4009.36 1031.86 3998.62 1056.27C3988.86 1080.68 3983.97 1106.56 3983.97 1133.91V2130H3584.07V561.152H3680.75L3789.15 681.27C3844.81 634.395 3905.85 598.262 3972.25 572.871C4039.64 546.504 4109.46 533.32 4181.73 533.32C4254.97 533.32 4326.26 546.992 4395.59 574.336C4465.91 601.68 4527.43 649.043 4580.16 716.426C4604.58 683.223 4632.41 654.902 4663.66 631.465C4694.91 608.027 4727.62 588.984 4761.8 574.336C4796.96 559.688 4833.09 549.434 4870.2 543.574C4907.31 536.738 4943.93 533.32 4980.07 533.32C5063.07 533.32 5140.71 548.945 5212.98 580.195C5286.22 611.445 5349.7 654.414 5403.41 709.102C5458.09 762.812 5501.06 826.289 5532.31 899.531C5563.56 972.773 5579.19 1050.9 5579.19 1133.91V2130ZM6184.99 2727.66H5782.16V561.152H5878.84L6038.5 750.117C6074.64 715.938 6114.19 683.711 6157.16 653.438C6200.12 623.164 6244.56 597.285 6290.46 575.801C6337.33 553.34 6385.67 535.762 6435.48 523.066C6485.28 510.371 6535.57 504.023 6586.36 504.023C6696.71 504.023 6800.22 524.043 6896.9 564.082C6994.56 603.145 7079.52 658.809 7151.79 731.074C7225.03 803.34 7282.64 890.742 7324.64 993.281C7366.63 1094.84 7387.62 1207.64 7387.62 1331.66C7387.62 1460.57 7366.63 1576.78 7324.64 1680.29C7282.64 1782.83 7225.03 1870.23 7151.79 1942.5C7079.52 2013.79 6994.56 2068.48 6896.9 2106.56C6800.22 2144.65 6696.71 2163.69 6586.36 2163.69C6551.2 2163.69 6516.04 2159.79 6480.89 2151.97C6446.71 2144.16 6412.53 2133.91 6378.35 2121.21C6345.14 2107.54 6311.94 2092.4 6278.74 2075.8C6246.51 2059.2 6215.26 2042.11 6184.99 2024.53V2727.66ZM6986.26 1331.66C6986.26 1265.25 6975.52 1205.68 6954.03 1152.95C6933.52 1100.21 6905.2 1055.78 6869.07 1019.65C6832.94 982.539 6790.46 954.219 6741.63 934.688C6692.8 915.156 6641.04 905.391 6586.36 905.391C6531.67 905.391 6479.91 915.156 6431.08 934.688C6383.23 954.219 6341.24 982.539 6305.11 1019.65C6268.97 1055.78 6240.16 1100.21 6218.68 1152.95C6198.17 1205.68 6187.92 1265.25 6187.92 1331.66C6187.92 1395.14 6198.17 1453.24 6218.68 1505.98C6240.16 1558.71 6268.97 1603.63 6305.11 1640.74C6341.24 1677.85 6383.23 1706.66 6431.08 1727.17C6479.91 1747.68 6531.67 1757.93 6586.36 1757.93C6641.04 1757.93 6692.8 1747.68 6741.63 1727.17C6790.46 1706.66 6832.94 1677.85 6869.07 1640.74C6905.2 1603.63 6933.52 1558.71 6954.03 1505.98C6975.52 1453.24 6986.26 1395.14 6986.26 1331.66ZM8673.11 1946.89C8640.89 1976.19 8606.22 2004.02 8569.11 2030.39C8532.98 2055.78 8494.89 2078.24 8454.85 2097.77C8414.81 2116.33 8373.31 2130.98 8330.34 2141.72C8288.35 2153.44 8245.38 2159.3 8201.43 2159.3C8104.75 2159.3 8013.93 2142.21 7928.97 2108.03C7844.01 2073.85 7769.3 2025.51 7704.85 1963.01C7641.38 1899.53 7591.08 1822.87 7553.97 1733.03C7517.84 1642.21 7499.77 1540.64 7499.77 1428.34V561.152H7898.21V1428.34C7898.21 1481.07 7906.02 1528.44 7921.65 1570.43C7938.25 1611.45 7960.22 1646.11 7987.57 1674.43C8014.91 1702.75 8046.65 1724.24 8082.78 1738.89C8119.89 1753.54 8159.44 1760.86 8201.43 1760.86C8242.45 1760.86 8281.02 1751.58 8317.16 1733.03C8354.27 1713.5 8386.49 1688.11 8413.84 1656.86C8441.18 1625.61 8462.66 1590.45 8478.29 1551.39C8493.91 1511.35 8501.73 1470.33 8501.73 1428.34V561.152H8901.63V2130H8804.95L8673.11 1946.89ZM9979.11 2130H9065.05V1731.56H9979.11C10006.5 1731.56 10029.9 1721.8 10049.4 1702.27C10069 1682.73 10078.7 1659.3 10078.7 1631.95C10078.7 1603.63 10069 1585.08 10049.4 1576.29C10029.9 1567.5 10006.5 1563.11 9979.11 1563.11H9563.09C9493.76 1563.11 9428.82 1549.92 9368.27 1523.55C9307.72 1497.19 9254.99 1461.54 9210.07 1416.62C9165.14 1370.72 9129.5 1317.5 9103.13 1256.95C9077.74 1196.41 9065.05 1131.46 9065.05 1062.13C9065.05 992.793 9077.74 927.852 9103.13 867.305C9129.5 806.758 9165.14 754.023 9210.07 709.102C9254.99 664.18 9307.72 629.023 9368.27 603.633C9428.82 577.266 9493.76 564.082 9563.09 564.082H10373.2V962.52H9563.09C9535.75 962.52 9512.31 972.285 9492.78 991.816C9473.25 1011.35 9463.48 1034.79 9463.48 1062.13C9463.48 1090.45 9473.25 1114.86 9492.78 1135.37C9512.31 1154.9 9535.75 1164.67 9563.09 1164.67H9979.11C10047.5 1164.67 10111.9 1176.39 10172.5 1199.82C10233 1222.29 10285.8 1254.02 10330.7 1295.04C10375.6 1336.05 10411.2 1385.37 10437.6 1442.99C10464 1500.61 10477.2 1563.59 10477.2 1631.95C10477.2 1701.29 10464 1766.23 10437.6 1826.78C10411.2 1886.35 10375.6 1939.08 10330.7 1984.98C10285.8 2029.9 10233 2065.55 10172.5 2091.91C10111.9 2117.3 10047.5 2130 9979.11 2130Z" fill="white"/>
</svg>
